<?xml version="1.0" encoding="utf-8"?>
<!-- Generator: Adobe Illustrator 21.1.0, SVG Export Plug-In . SVG Version: 6.00 Build 0)  -->
<svg version="1.1" id="Layer_1" xmlns="http://www.w3.org/2000/svg" xmlns:xlink="http://www.w3.org/1999/xlink" x="0px" y="0px"
	 viewBox="0 0 182.9 231.5" style="enable-background:new 0 0 182.9 231.5;" xml:space="preserve">
<style type="text/css">
	.st0{enable-background:new    ;}
	.st1{fill:#FFFFFF;}
</style>
<title>Asset 2</title>
<g id="Layer_2">
	<g id="Layer_1-2">
		<g class="st0">
			<path class="st1" d="M86.9,96.5c-6.8,4-18.7,6.2-36.1,6.2c-3.6,0-8.2-0.6-11.8-1.2v25.1c0,12.2,0.8,24.3,2.8,30.7
				c1.4,4,4,6.2,7.6,7.4c1.6,0.6,5,1,6.4,1.2v0.4H3.6v-0.4c1.4-0.2,3.6-0.6,5.2-1.2c3.4-1.2,6.4-3.6,7.6-7.6
				c2.2-6.4,2.8-18.3,2.8-30.5V74.4c0-12.2-0.2-24.1-2.4-30.5c-1.2-3.8-4.6-6.2-8-7.4c-1.6-0.6-3.6-1.2-5.2-1.6v-0.4H58
				c27.5,0,45.2,11.4,45.2,33.5C103.2,80.2,96.6,90.8,86.9,96.5z M54.6,35.2c-5.2,0-9.6,0.2-11.4,1.2c-2.2,1-3,3.2-3.6,5.6
				c-0.4,2.4-0.6,4.8-0.6,10.2v48.2c4.2,1,8,1.4,11.8,1.4c15.3,0,20.3-4.4,24.5-10.2c4.2-5.6,5.6-14.5,5.6-22.9
				C80.9,46.9,74.1,35.2,54.6,35.2z"/>
		</g>
		<g class="st0">
			<path class="st1" d="M131.9,114.7H95l-7.8,22.5c-1.8,5.4-3.2,10.8-3.2,15.3c0,6.6,3,9.4,5.6,10.8c3.6,2.2,5,2.2,6.6,2.6v0.4H66.4
				v-0.4c2.2-0.4,4.2-0.8,6.6-2.6c2-1.4,3.6-3.2,5.6-6.4c2-3.4,4.2-10,7.4-19.5l36.3-104h4l27.5,85.7c4.8,14.5,11.4,32.1,14.7,38.5
				c2.6,4.6,5.4,6.2,8.8,7.4c1.8,0.6,2.4,0.6,4,0.8v0.4h-50.8v-0.4c1.4-0.2,4.2-1,5.8-1.8c3.8-1.6,6.4-3.6,6.4-10
				c0-5.2-2.8-13.5-4.4-18.7L131.9,114.7z M95.4,113.9h36.1l-17.3-53.4H114L95.4,113.9z"/>
		</g>
		<g class="st0">
			<path class="st1" d="M27.9,193.6c-2,1.2-5.4,1.8-10.5,1.8c-1,0-2.4-0.2-3.4-0.3v7.3c0,3.6,0.2,7.1,0.8,8.9
				c0.4,1.2,1.2,1.8,2.2,2.2c0.5,0.2,1.5,0.3,1.9,0.4v0.1H3.7v-0.1c0.4-0.1,1-0.2,1.5-0.4c1-0.3,1.9-1,2.2-2.2
				c0.6-1.9,0.8-5.3,0.8-8.9v-15.2c0-3.6-0.1-7-0.7-8.9c-0.3-1.1-1.3-1.8-2.3-2.2c-0.5-0.2-1-0.3-1.5-0.5v-0.1h15.8
				c8,0,13.1,3.3,13.1,9.7C32.6,188.9,30.7,192,27.9,193.6z M18.5,175.8c-1.5,0-2.8,0.1-3.3,0.3c-0.6,0.3-0.9,0.9-1,1.6
				c-0.1,0.7-0.2,1.4-0.2,3v14c1.2,0.3,2.3,0.4,3.4,0.4c4.4,0,5.9-1.3,7.1-3c1.2-1.6,1.6-4.2,1.6-6.6
				C26.1,179.2,24.2,175.8,18.5,175.8z"/>
		</g>
		<g class="st0">
			<path class="st1" d="M60.3,213.9H31.7v-0.1c0.5-0.1,1.1-0.3,1.5-0.5c1-0.3,1.9-1,2.3-2.2c0.6-1.9,0.8-5.3,0.8-8.9v-15.1
				c0-3.6-0.1-7-0.8-8.9c-0.4-1.2-1.2-1.8-2.3-2.2c-0.4-0.2-1-0.3-1.5-0.5v-0.1h14.8v0.1c-0.5,0.1-1,0.3-1.5,0.5c-1,0.3-2,1-2.3,2.2
				c-0.6,1.9-0.8,5.2-0.8,8.9v19.2c0,2.4,0.1,3.4,0.4,4.4c0.2,0.8,0.7,1.5,1.2,1.9c0.8,0.6,2,1,2.9,1h5.1c2.7,0,4.4-1.4,5.5-2.6
				c2-2.1,3.4-5.3,4-7.3h0.1L60.3,213.9z"/>
		</g>
		<g class="st0">
			<path class="st1" d="M91,213.9H63v-0.1c0.4-0.1,0.8-0.2,1.3-0.4c1.1-0.3,2-1,2.4-2.3c0.7-2,0.8-6,0.8-9.9v-12.9
				c0-3.9-0.1-7.9-0.8-9.9c-0.4-1.3-1.3-2-2.5-2.4c-0.5-0.2-0.9-0.3-1.3-0.4v-0.1h26.4l1.3,9.5h-0.1c-0.9-2.7-2.7-5.8-4.6-7.5
				c-0.9-0.9-2.2-1.8-4.4-1.8h-2.8c-1.3,0-2.9,0.1-3.7,0.7c-1.9,1.6-1.8,5.5-1.8,8.9v8.5h2.7c3.1,0,4.3-0.2,5.4-1.2
				c1.5-1.3,2.4-3.8,2.6-5.4H84v12.7h-0.1c-0.2-1.6-1-3.4-2.4-4.5c-1-0.8-2.5-1.4-5.6-1.4h-2.7v9.8c0,4.5-0.2,8.2,1.6,9.1
				c1.1,0.5,2.6,0.6,4.2,0.6h2.5c3,0,4.5-1,5.8-2.3c2.2-2.2,3.7-5.1,4.5-7.5H92L91,213.9z"/>
			<path class="st1" d="M111.5,198.9h-10.7l-2.3,6.5c-0.5,1.6-0.9,3.1-0.9,4.4c0,1.9,0.9,2.7,1.6,3.1c1,0.6,1.5,0.6,1.9,0.8v0.1
				h-8.6v-0.1c0.6-0.1,1.2-0.2,1.9-0.8c0.6-0.4,1-0.9,1.6-1.9c0.6-1,1.2-2.9,2.2-5.7l10.6-30.2h1.2l8,24.9c1.4,4.2,3.3,9.3,4.3,11.2
				c0.8,1.3,1.6,1.8,2.6,2.2c0.5,0.2,0.7,0.2,1.2,0.2v0.1h-14.8v-0.1c0.4-0.1,1.2-0.3,1.7-0.5c1.1-0.5,1.9-1,1.9-2.9
				c0-1.5-0.8-3.9-1.3-5.4L111.5,198.9z M100.9,198.7h10.5l-5-15.5h-0.1L100.9,198.7z"/>
		</g>
		<g class="st0">
			<path class="st1" d="M139.5,214.7c-4.4,0-7.6-1.9-9.3-4.3h-0.1l-1.8,3.1h-0.1l-0.4-11.6h0.1c2,6.7,5.2,12.5,11.5,12.5
				c5.1,0,7-3.2,7-7.9c0-5.4-3.2-7.2-8.8-9.5c-5.3-2.2-10.1-5.2-10.1-12.1c0-5.4,4.4-10.1,10.7-10.1c3.7,0,6.6,1.4,8,3.2h0.1
				l1.6-2.6h0.2l0.7,10h-0.1c-0.8-2.8-2.5-6.1-4.1-7.7c-1.3-1.3-3.1-2.6-6.3-2.6c-2.8,0-5.7,1.7-5.7,6.8c0,5.5,4.2,6.9,8.3,8.9
				c6.1,3,10.6,4.3,10.6,12.6C151.5,210.6,145.3,214.7,139.5,214.7z"/>
		</g>
		<g class="st0">
			<path class="st1" d="M180.6,213.9h-28v-0.1c0.4-0.1,0.8-0.2,1.3-0.4c1.1-0.3,2-1,2.4-2.3c0.7-2,0.8-6,0.8-9.9v-12.9
				c0-3.9-0.1-7.9-0.8-9.9c-0.4-1.3-1.3-2-2.5-2.4c-0.5-0.2-0.9-0.3-1.3-0.4v-0.1h26.4l1.3,9.5H180c-0.9-2.7-2.7-5.8-4.6-7.5
				c-0.9-0.9-2.2-1.8-4.4-1.8h-2.8c-1.3,0-2.9,0.1-3.7,0.7c-1.9,1.6-1.8,5.5-1.8,8.9v8.5h2.7c3.1,0,4.3-0.2,5.4-1.2
				c1.5-1.3,2.4-3.8,2.6-5.4h0.1v12.7h-0.1c-0.2-1.6-1-3.4-2.4-4.5c-1-0.8-2.5-1.4-5.6-1.4h-2.7v9.8c0,4.5-0.2,8.2,1.6,9.1
				c1.1,0.5,2.6,0.6,4.2,0.6h2.5c3,0,4.5-1,5.8-2.3c2.2-2.2,3.7-5.1,4.5-7.5h0.1L180.6,213.9z"/>
		</g>
		<g>
			<rect x="3.6" y="170.5" class="st1" width="177.9" height="1"/>
		</g>
		<g>
			<rect x="3.6" y="218.1" class="st1" width="177.9" height="1"/>
		</g>
	</g>
</g>
</svg>
